<svg width="200" height="200" viewBox="0 0 200 200" fill="none" xmlns="http://www.w3.org/2000/svg">
  <defs>
    <linearGradient id="rim" x1="0%" y1="0%" x2="100%" y2="100%">
      <stop offset="0%" stop-color="#b89fd4"/>
      <stop offset="100%" stop-color="#7a6391"/>
    </linearGradient>
    <radialGradient id="fill" cx="50%" cy="50%" r="50%">
      <stop offset="0%" stop-color="#9d84ba" stop-opacity="0.12"/>
      <stop offset="100%" stop-color="transparent"/>
    </radialGradient>
    <radialGradient id="inner-fill" cx="50%" cy="50%" r="50%">
      <stop offset="0%" stop-color="#9d84ba" stop-opacity="0.08"/>
      <stop offset="100%" stop-color="transparent"/>
    </radialGradient>
  </defs>
  <circle cx="100" cy="100" r="72" fill="url(#fill)"/>
  <circle cx="100" cy="100" r="48" fill="url(#inner-fill)"/>
  <circle cx="100" cy="100" r="72" fill="none" stroke="url(#rim)" stroke-width="2"/>
  <circle cx="100" cy="100" r="48" fill="none" stroke="#9d84ba" stroke-width="0.8" opacity="0.4"/>
  <circle cx="100" cy="100" r="8" fill="#9d84ba"/>
  <circle cx="100" cy="100" r="4" fill="#c4aed6"/>
  <line x1="100" y1="62" x2="100" y2="86" stroke="#9d84ba" stroke-width="1.5" stroke-linecap="round"/>
  <line x1="100" y1="114" x2="100" y2="138" stroke="#9d84ba" stroke-width="1.5" stroke-linecap="round"/>
  <line x1="62" y1="100" x2="86" y2="100" stroke="#9d84ba" stroke-width="1.5" stroke-linecap="round"/>
  <line x1="114" y1="100" x2="138" y2="100" stroke="#9d84ba" stroke-width="1.5" stroke-linecap="round"/>
  <line x1="76" y1="76" x2="84" y2="84" stroke="#9d84ba" stroke-width="1" stroke-linecap="round" opacity="0.6"/>
  <line x1="124" y1="76" x2="116" y2="84" stroke="#9d84ba" stroke-width="1" stroke-linecap="round" opacity="0.6"/>
  <line x1="76" y1="124" x2="84" y2="116" stroke="#9d84ba" stroke-width="1" stroke-linecap="round" opacity="0.6"/>
  <line x1="124" y1="124" x2="116" y2="116" stroke="#9d84ba" stroke-width="1" stroke-linecap="round" opacity="0.6"/>
  <circle cx="100" cy="28" r="2.5" fill="#9d84ba" opacity="0.7"/>
  <circle cx="172" cy="100" r="2.5" fill="#9d84ba" opacity="0.7"/>
  <circle cx="100" cy="172" r="2.5" fill="#9d84ba" opacity="0.7"/>
  <circle cx="28" cy="100" r="2.5" fill="#9d84ba" opacity="0.7"/>
</svg>
