<svg width="200" height="200" viewBox="0 0 200 200" fill="none" xmlns="http://www.w3.org/2000/svg">
  <defs>
    <radialGradient id="bg" cx="50%" cy="50%" r="50%">
      <stop offset="0%" stop-color="#2d1a3e"/>
      <stop offset="70%" stop-color="#180e26"/>
      <stop offset="100%" stop-color="#07040f"/>
    </radialGradient>
    <radialGradient id="nebula" cx="42%" cy="38%" r="65%">
      <stop offset="0%" stop-color="#9d84ba" stop-opacity="0.7"/>
      <stop offset="45%" stop-color="#9d84ba" stop-opacity="0.25"/>
      <stop offset="100%" stop-color="#9d84ba" stop-opacity="0"/>
    </radialGradient>
    <radialGradient id="nebula2" cx="62%" cy="60%" r="50%">
      <stop offset="0%" stop-color="#c4aed6" stop-opacity="0.3"/>
      <stop offset="100%" stop-color="transparent"/>
    </radialGradient>
    <linearGradient id="rim" x1="0%" y1="0%" x2="100%" y2="100%">
      <stop offset="0%" stop-color="#c4aed6" stop-opacity="0.9"/>
      <stop offset="50%" stop-color="#9d84ba" stop-opacity="0.6"/>
      <stop offset="100%" stop-color="#7a6391" stop-opacity="0.8"/>
    </linearGradient>
    <radialGradient id="core" cx="50%" cy="50%" r="50%">
      <stop offset="0%" stop-color="white"/>
      <stop offset="25%" stop-color="#f0e8f8"/>
      <stop offset="60%" stop-color="#9d84ba" stop-opacity="0.5"/>
      <stop offset="100%" stop-color="transparent"/>
    </radialGradient>
    <radialGradient id="glow" cx="50%" cy="50%" r="50%">
      <stop offset="0%" stop-color="#9d84ba" stop-opacity="0.45"/>
      <stop offset="100%" stop-color="#9d84ba" stop-opacity="0"/>
    </radialGradient>
    <clipPath id="clip"><circle cx="100" cy="100" r="72"/></clipPath>
    <filter id="blur-glow"><feGaussianBlur stdDeviation="18"/></filter>
    <filter id="blur-core"><feGaussianBlur stdDeviation="6"/></filter>
  </defs>
  <circle cx="100" cy="106" r="94" fill="url(#glow)" filter="url(#blur-glow)"/>
  <circle cx="100" cy="100" r="72" fill="url(#bg)"/>
  <g clip-path="url(#clip)">
    <ellipse cx="88" cy="88" rx="72" ry="54" fill="url(#nebula)" transform="rotate(-15 88 88)"/>
    <ellipse cx="118" cy="116" rx="52" ry="40" fill="url(#nebula2)"/>
  </g>
  <circle cx="100" cy="100" r="72" fill="none" stroke="url(#rim)" stroke-width="1.2" opacity="0.85"/>
  <circle cx="100" cy="100" r="50" fill="none" stroke="#9d84ba" stroke-width="0.5" opacity="0.3"/>
  <circle cx="100" cy="100" r="26" fill="url(#core)" filter="url(#blur-core)"/>
  <circle cx="100" cy="100" r="7" fill="white"/>
  <line x1="100" y1="68" x2="100" y2="88" stroke="white" stroke-width="1.5" stroke-linecap="round" opacity="0.95"/>
  <line x1="100" y1="112" x2="100" y2="132" stroke="white" stroke-width="1.5" stroke-linecap="round" opacity="0.95"/>
  <line x1="68" y1="100" x2="88" y2="100" stroke="white" stroke-width="1.5" stroke-linecap="round" opacity="0.95"/>
  <line x1="112" y1="100" x2="132" y2="100" stroke="white" stroke-width="1.5" stroke-linecap="round" opacity="0.95"/>
  <line x1="80" y1="80" x2="87" y2="87" stroke="white" stroke-width="1" stroke-linecap="round" opacity="0.55"/>
  <line x1="120" y1="80" x2="113" y2="87" stroke="white" stroke-width="1" stroke-linecap="round" opacity="0.55"/>
  <line x1="80" y1="120" x2="87" y2="113" stroke="white" stroke-width="1" stroke-linecap="round" opacity="0.55"/>
  <line x1="120" y1="120" x2="113" y2="113" stroke="white" stroke-width="1" stroke-linecap="round" opacity="0.55"/>
  <circle cx="100" cy="28" r="2.5" fill="#c4aed6" opacity="0.9"/>
  <circle cx="172" cy="100" r="2.5" fill="#c4aed6" opacity="0.9"/>
  <circle cx="100" cy="172" r="2.5" fill="#c4aed6" opacity="0.9"/>
  <circle cx="28" cy="100" r="2.5" fill="#c4aed6" opacity="0.9"/>
</svg>
